<svg width="349" height="72" viewBox="0 0 349 72" fill="none" xmlns="http://www.w3.org/2000/svg">
<path fill-rule="evenodd" clip-rule="evenodd" d="M266.978 68.7338C269.524 66.1885 270.6 62.1613 269.694 57.0244C268.112 48.0626 260.184 34.8093 247.953 22.5775C235.723 10.3456 222.469 2.41944 213.506 0.837497C208.369 -0.0690117 204.342 1.00736 201.797 3.55308C199.253 6.09881 198.176 10.1252 199.083 15.2621C200.665 24.2236 208.59 37.4772 220.821 49.709C233.054 61.9407 246.308 69.8666 255.269 71.4484C260.406 72.3551 264.433 71.2791 266.978 68.7338ZM261.531 63.2874C260.965 63.855 260.121 64.0229 259.142 64.0648C257.473 64.1363 255.508 63.7368 253.319 62.9977C245.603 60.3916 235.659 53.653 226.268 44.2626C216.877 34.8723 210.139 24.9287 207.534 17.2111C206.795 15.0231 206.394 13.0578 206.465 11.3899C206.509 10.4105 206.677 9.56645 207.243 8.99904C207.81 8.43143 208.656 8.26357 209.635 8.2215C211.302 8.15021 213.267 8.54973 215.455 9.28857C223.174 11.8949 233.118 18.6335 242.507 28.0239C251.898 37.4142 258.636 47.3578 261.243 55.0752C261.982 57.2634 262.381 59.2287 262.31 60.8966C262.268 61.8757 262.1 62.7198 261.531 63.2874V63.2874Z" fill="#FF8C5C"/>
<path d="M33.0656 15.5683C30.196 13.4975 25.5003 11.362 19.3046 11.362C10.2393 11.362 3.45657 15.7624 3.45657 23.0748C3.45657 38.4762 27.7177 33.6229 27.7177 44.1709C27.7177 48.1183 24.3916 50.9009 18.1307 50.9009C11.8045 50.9009 6.65226 47.73 3.78266 44.818L0 50.9009C4.3044 55.6249 11.1523 58.3428 18.1307 58.3428C29.4786 58.3428 35.6744 52.001 35.6744 44.1709C35.6744 27.7341 11.348 30.452 11.348 23.0748C11.348 20.7452 13.761 18.4156 19.3046 18.4156C23.4133 18.4156 27.3264 20.2275 29.283 21.9747L33.0656 15.5683Z" fill="#000422"/>
<path d="M50.0652 57.5015V36.729H67.6741C74.3916 36.729 79.7395 31.2285 79.7395 24.5632C79.7395 17.7038 74.3916 12.2033 67.6741 12.2033H42.239V57.5015H50.0652ZM50.0652 19.6451H66.8915C69.5654 19.6451 71.7176 21.7159 71.7176 24.4985C71.7176 27.2164 69.5654 29.2872 66.8915 29.2872H50.0652V19.6451Z" fill="#000422"/>
<path d="M118.891 57.5015V50.1244H95.4122V37.635H115.304V30.2578H95.4122V19.5804H118.173V12.2033H87.586V57.5015H118.891Z" fill="#000422"/>
<path d="M158.892 46.1122C156.219 49.1537 152.175 51.0303 147.414 51.0303C139.523 51.0303 132.283 45.271 132.283 34.8524C132.283 24.5632 139.523 18.6744 147.414 18.6744C152.045 18.6744 156.088 20.5511 158.697 23.3984L163.979 17.7038C160.001 13.7563 154.327 11.362 147.414 11.362C133.392 11.362 124.131 21.5218 124.131 34.8524C124.131 48.3124 133.392 58.3428 147.349 58.3428C154.653 58.3428 160.523 55.6896 164.632 51.4186L158.892 46.1122Z" fill="#000422"/>
<path d="M192.327 57.5015V19.5804H208.241V12.2033H168.523V19.5804H184.371V57.5015H192.327Z" fill="#000422"/>
<path d="M234.094 58.3428C247.79 58.3428 257.442 48.183 257.442 34.8524C257.442 21.6512 247.79 11.362 234.159 11.362C220.529 11.362 210.876 21.5218 210.876 34.8524C210.876 48.3124 220.529 58.3428 234.094 58.3428ZM234.159 51.095C225.551 51.095 219.029 45.271 219.029 34.8524C219.029 24.5632 225.551 18.6097 234.159 18.6097C242.768 18.6097 249.29 24.5632 249.29 34.8524C249.29 45.271 242.768 51.095 234.159 51.095Z" fill="#000422"/>
<path d="M279.513 57.5015C293.991 57.5015 303.709 48.8948 303.709 34.8524C303.709 21.6512 293.991 12.2033 279.513 12.2033H264.643V57.5015H279.513ZM272.469 19.5157H279.513C287.861 19.5157 295.687 23.9161 295.687 34.8524C295.687 46.2417 287.861 50.2538 279.513 50.2538H272.469V19.5157Z" fill="#000422"/>
<path d="M349 57.5015L337.261 12.2033H316.847L305.043 57.5015H312.934L318.282 36.4055H335.761L341.109 57.5015H349ZM322.521 19.7098H331.522L333.869 29.0283H320.174L322.521 19.7098Z" fill="#000422"/>
<path fill-rule="evenodd" clip-rule="evenodd" d="M261.387 63.2438C260.822 63.8143 259.98 63.9831 259.003 64.0252C257.338 64.097 255.377 63.6954 253.194 62.9526C245.496 60.333 235.574 53.5598 226.205 44.1211C216.836 34.6824 210.113 24.6877 207.514 16.9304C206.777 14.7311 206.377 12.7557 206.448 11.0793C206.491 10.0948 206.658 9.24638 207.224 8.67605C208.723 7.16517 208.723 4.71276 207.224 3.20208C205.724 1.69139 203.289 1.69139 201.79 3.20208C199.252 5.7609 198.178 9.80798 199.082 14.9713C200.66 23.979 208.568 37.3008 220.771 49.5955C232.975 61.8902 246.199 69.8569 255.139 71.4468C260.264 72.3581 264.282 71.2766 266.821 68.7182C268.321 67.2075 268.321 64.7545 266.821 63.2438C265.322 61.7331 262.887 61.7331 261.387 63.2438Z" fill="#FF8C5C"/>
</svg>
